<?xml version="1.0" encoding="UTF-8" ?>
<!DOCTYPE svg PUBLIC "-//W3C//DTD SVG 1.1//EN" "http://www.w3.org/Graphics/SVG/1.1/DTD/svg11.dtd">
<svg width="556pt" height="557pt" viewBox="0 0 556 557" version="1.1" xmlns="http://www.w3.org/2000/svg">
<g id="#7902aaff">
<path fill="#7902aa" opacity="1.00" d=" M 223.89 5.99 C 242.65 2.23 261.79 0.48 280.92 0.75 C 334.58 1.07 387.98 17.69 432.51 47.59 C 467.72 71.07 497.38 102.77 518.53 139.42 C 538.09 173.22 550.43 211.17 554.36 250.03 C 555.27 254.98 554.56 260.11 556.00 264.97 L 556.00 289.07 C 555.37 292.69 555.11 296.35 555.01 300.02 C 552.13 337.11 541.75 373.62 524.53 406.60 C 507.08 440.31 482.57 470.37 453.06 494.26 C 402.30 535.64 336.50 558.23 271.01 556.14 C 195.67 554.84 121.73 520.62 71.57 464.45 C 32.55 421.33 7.67 365.63 1.73 307.76 C 0.73 301.79 1.24 295.68 0.00 289.74 L 0.00 266.66 C 0.84 262.79 0.94 258.83 1.11 254.89 C 2.16 244.14 3.58 233.40 5.80 222.82 C 16.44 170.15 42.93 120.87 80.78 82.75 C 119.48 43.73 169.94 16.55 223.89 5.99 M 184.31 105.23 C 152.45 122.44 125.48 148.60 107.44 180.01 C 109.76 178.92 111.92 177.55 114.07 176.17 C 132.55 164.99 151.74 154.99 169.91 143.29 C 182.77 150.21 195.10 158.11 207.88 165.19 C 230.52 178.36 253.30 191.30 276.14 204.10 C 278.15 205.44 280.40 204.01 282.33 203.25 C 290.40 199.18 297.99 194.24 305.89 189.86 C 331.86 174.88 358.05 160.31 383.71 144.82 C 384.92 144.12 386.51 142.95 387.86 144.08 C 407.85 156.42 428.63 167.43 448.53 179.90 C 432.40 152.01 409.34 128.16 381.94 111.19 C 347.56 89.73 306.41 79.29 265.96 81.96 C 237.48 83.51 209.41 91.72 184.31 105.23 M 81.00 274.01 C 80.33 309.50 89.14 345.27 106.97 376.01 C 107.28 351.99 106.77 327.95 107.27 303.93 C 113.84 307.03 119.79 311.30 126.15 314.81 C 140.07 323.01 154.05 331.12 168.25 338.83 C 170.62 339.55 169.67 342.21 169.85 344.04 C 170.99 364.68 169.44 385.32 169.77 405.97 C 169.59 408.63 170.32 411.47 169.27 414.02 C 149.32 401.23 128.14 390.45 108.07 377.86 C 125.74 408.76 152.43 434.31 183.61 451.39 C 211.90 466.88 244.03 475.18 276.26 475.48 C 258.64 464.27 240.20 454.43 222.31 443.67 C 219.64 441.94 216.64 440.67 214.34 438.41 C 214.94 397.40 214.54 356.37 214.50 315.36 C 211.21 312.95 207.45 311.25 204.00 309.09 C 172.62 291.17 141.29 273.17 109.92 255.24 C 108.99 254.51 107.48 254.24 107.08 253.01 C 106.94 229.01 107.23 205.00 106.94 181.00 C 90.63 209.16 81.91 241.53 81.00 274.01 M 449.92 253.05 C 449.71 253.29 449.29 253.79 449.07 254.03 C 413.14 274.35 377.32 294.90 341.66 315.68 C 341.93 356.84 341.46 398.00 341.96 439.16 C 321.29 451.54 300.43 463.64 279.41 475.41 C 311.22 475.33 342.93 467.15 370.97 452.16 C 402.39 435.26 429.40 409.82 447.30 378.90 C 426.81 390.93 406.15 402.67 385.68 414.73 C 385.37 390.11 385.24 365.45 385.88 340.82 C 392.43 336.63 399.32 333.03 406.02 329.10 C 420.77 320.74 435.30 312.00 449.97 303.51 C 449.94 327.13 449.89 350.75 450.00 374.36 C 466.97 344.27 475.52 309.58 475.01 275.08 C 474.38 242.91 465.80 210.93 450.18 182.78 C 449.62 206.19 450.13 229.63 449.92 253.05 Z" />
<path fill="#7902aa" opacity="1.00" d=" M 277.00 82.57 C 279.55 81.54 281.92 83.89 284.19 84.81 C 303.44 96.27 323.19 106.88 342.03 119.00 C 320.54 130.50 299.54 142.91 278.61 155.39 C 257.40 143.15 236.36 130.63 214.82 118.98 C 235.08 106.06 256.08 94.37 277.00 82.57 Z" />
</g>
</svg>
